<svg xmlns="http://www.w3.org/2000/svg" width="16" height="16" viewBox="0 0 16 16">
    <path fill="#2196f3" fill-rule="nonzero" d="M7.992 0C3.576 0 0 3.584 0 8s3.576 8 7.992 8C12.416 16 16 12.416 16 8s-3.584-8-8.008-8zM8 14.4A6.398 6.398 0 0 1 1.6 8c0-3.536 2.864-6.4 6.4-6.4 3.536 0 6.4 2.864 6.4 6.4 0 3.536-2.864 6.4-6.4 6.4zm2.8-7.2c.664 0 1.2-.536 1.2-1.2 0-.664-.536-1.2-1.2-1.2-.664 0-1.2.536-1.2 1.2 0 .664.536 1.2 1.2 1.2zm-5.6 0c.664 0 1.2-.536 1.2-1.2 0-.664-.536-1.2-1.2-1.2C4.536 4.8 4 5.336 4 6c0 .664.536 1.2 1.2 1.2zM8 12.4a4.397 4.397 0 0 0 4.088-2.8H3.912A4.397 4.397 0 0 0 8 12.4z"/>
</svg>
