<svg xmlns="http://www.w3.org/2000/svg" width="18" height="15" viewBox="0 0 18 15">
    <path fill="#2196f3" fill-rule="nonzero" d="M7.344.781L12.754 15H10.79l-1.328-3.662H3.506L2.158 15H.195L5.693.781h1.65zM16 11.5c.825 0 1.5.675 1.5 1.5s-.675 1.5-1.5 1.5-1.5-.675-1.5-1.5.675-1.5 1.5-1.5zM16 7c.825 0 1.5.675 1.5 1.5S16.825 10 16 10s-1.5-.675-1.5-1.5S15.175 7 16 7zM6.543 3.252h-.059L4.102 9.727h4.785L6.543 3.252zM16 2.5c.825 0 1.5.675 1.5 1.5s-.675 1.5-1.5 1.5-1.5-.675-1.5-1.5.675-1.5 1.5-1.5z"/>
</svg>
