<svg xmlns="http://www.w3.org/2000/svg" width="15" height="16" viewBox="0 0 15 16">
    <path fill="#2196f3" fill-rule="nonzero" d="M13.6 16H8.8a.8.8 0 0 1-.8-.8v-.665a2.4 2.4 0 0 1 1.44-2.199A5.606 5.606 0 0 0 12.8 7.2c0-3.087-2.512-5.6-5.6-5.6a5.607 5.607 0 0 0-5.6 5.6 5.606 5.606 0 0 0 3.36 5.136 2.4 2.4 0 0 1 1.44 2.2v.664a.8.8 0 0 1-.8.8H.8a.8.8 0 0 1-.8-.8v-1.6a.8.8 0 1 1 1.6 0v.8h3.189a.802.802 0 0 0-.469-.598A7.205 7.205 0 0 1 0 7.2C0 3.23 3.23 0 7.2 0s7.2 3.23 7.2 7.2a7.205 7.205 0 0 1-4.32 6.602.802.802 0 0 0-.469.598h3.19v-.8a.8.8 0 1 1 1.599 0v1.6a.8.8 0 0 1-.8.8z"/>
</svg>
