<svg xmlns="http://www.w3.org/2000/svg" width="18" height="14" viewBox="0 0 18 14">
    <path fill="#2196f3" fill-rule="nonzero" d="M1.4 5.6C.625 5.6 0 6.225 0 7c0 .775.625 1.4 1.4 1.4.775 0 1.4-.625 1.4-1.4 0-.775-.625-1.4-1.4-1.4zm0-5.6C.625 0 0 .625 0 1.4c0 .775.625 1.4 1.4 1.4.775 0 1.4-.625 1.4-1.4C2.8.625 2.175 0 1.4 0zm0 11.2c-.775 0-1.4.635-1.4 1.4 0 .765.635 1.4 1.4 1.4.765 0 1.4-.635 1.4-1.4 0-.765-.625-1.4-1.4-1.4zm2.8 2.333h13.067v-1.866H4.2v1.866zm0-5.6h13.067V6.067H4.2v1.866zm0-7.466v1.866h13.067V.467H4.2z"/>
</svg>
