<svg xmlns="http://www.w3.org/2000/svg" width="17" height="16" viewBox="0 0 17 16">
    <g fill="#333" fill-rule="nonzero">
        <path stroke="#333" d="M5.375 1A4.38 4.38 0 0 0 1 5.375 4.38 4.38 0 0 0 5.375 9.75h1.75V15H8V1.875h1.75V15h.875V1.875h.875V1H5.375zm1.75 7.875h-1.75c-1.93 0-3.5-1.57-3.5-3.5s1.57-3.5 3.5-3.5h1.75v7z"/>
        <path d="M16.5 5c0-.825-.675-1.5-1.5-1.5s-1.5.675-1.5 1.5.675 1.5 1.5 1.5 1.5-.675 1.5-1.5zm0 9c0-.825-.675-1.5-1.5-1.5s-1.5.675-1.5 1.5.675 1.5 1.5 1.5 1.5-.675 1.5-1.5zm0-4.5c0-.825-.675-1.5-1.5-1.5s-1.5.675-1.5 1.5.675 1.5 1.5 1.5 1.5-.675 1.5-1.5z"/>
    </g>
</svg>
