<svg xmlns="http://www.w3.org/2000/svg" width="17" height="14" viewBox="0 0 17 14">
    <path fill="#333" fill-rule="nonzero" d="M5.752 0c.138 0 .278.01.414.028a.44.44 0 0 1 .364.554L6.125 2.03a.44.44 0 0 1-.359.317C3.916 2.62 2.986 5.065 2.6 6.48a3.857 3.857 0 0 1 1.539-.315c.402 0 .814.06 1.227.179A3.91 3.91 0 0 1 7.71 8.186c.511.908.638 1.96.357 2.964A3.912 3.912 0 0 1 4.314 14h-.017c-1.41-.056-2.507-.606-3.259-1.638C-.304 10.518-.144 7.589.401 5.64 1.329 2.32 3.53 0 5.752 0zm8.55 0c.14 0 .278.01.415.028a.44.44 0 0 1 .364.554l-.405 1.447a.44.44 0 0 1-.359.317c-1.851.275-2.78 2.719-3.168 4.135a3.858 3.858 0 0 1 1.54-.315c.401 0 .814.06 1.227.179a3.91 3.91 0 0 1 2.345 1.842c.51.907.637 1.96.357 2.963A3.912 3.912 0 0 1 12.865 14h-.018c-1.41-.055-2.506-.606-3.258-1.638-1.343-1.844-1.183-4.773-.638-6.722C9.88 2.32 12.081 0 14.303 0z"/>
</svg>
