<svg xmlns="http://www.w3.org/2000/svg" width="16" height="16" viewBox="0 0 16 16">
    <path fill="#333" fill-rule="nonzero" d="M0 1.778h1.778V0C.8 0 0 .8 0 1.778zm0 7.11h1.778V7.112H0V8.89zM3.556 16h1.777v-1.778H3.556V16zM0 5.333h1.778V3.556H0v1.777zM8.889 0H7.11v1.778H8.89V0zm5.333 0v1.778H16C16 .8 15.2 0 14.222 0zM1.778 16v-1.778H0C0 15.2.8 16 1.778 16zM0 12.444h1.778v-1.777H0v1.777zM5.333 0H3.556v1.778h1.777V0zm1.778 16H8.89v-1.778H7.11V16zm7.111-7.111H16V7.11h-1.778V8.89zm0 7.111C15.2 16 16 15.2 16 14.222h-1.778V16zm0-10.667H16V3.556h-1.778v1.777zm0 7.111H16v-1.777h-1.778v1.777zM10.667 16h1.777v-1.778h-1.777V16zm0-14.222h1.777V0h-1.777v1.778zM3.556 12.444h8.888V3.556H3.556v8.888zm1.777-7.11h5.334v5.333H5.333V5.333z"/>
</svg>
